<svg width="25" height="23" viewBox="0 0 25 23" fill="none" xmlns="http://www.w3.org/2000/svg">
<path d="M20.5 4.58386H4.5C3.4 4.58386 2.51 5.40886 2.51 6.4172L2.5 17.4172C2.5 18.4255 3.4 19.2505 4.5 19.2505H20.5C21.6 19.2505 22.5 18.4255 22.5 17.4172V6.4172C22.5 5.40886 21.6 4.58386 20.5 4.58386ZM20.1 8.4797L13.03 12.5314C12.71 12.7147 12.29 12.7147 11.97 12.5314L4.9 8.4797C4.79973 8.4281 4.71192 8.35839 4.64189 8.27478C4.57186 8.19117 4.52106 8.09541 4.49258 7.99329C4.46409 7.89116 4.4585 7.7848 4.47616 7.68064C4.49381 7.57648 4.53434 7.47669 4.59528 7.38731C4.65623 7.29792 4.73632 7.2208 4.83073 7.16061C4.92513 7.10042 5.03187 7.05841 5.1445 7.03714C5.25712 7.01586 5.37328 7.01575 5.48595 7.03681C5.59863 7.05788 5.70546 7.09968 5.8 7.1597L12.5 11.0005L19.2 7.1597C19.2945 7.09968 19.4014 7.05788 19.514 7.03681C19.6267 7.01575 19.7429 7.01586 19.8555 7.03714C19.9681 7.05841 20.0749 7.10042 20.1693 7.16061C20.2637 7.2208 20.3438 7.29792 20.4047 7.38731C20.4657 7.47669 20.5062 7.57648 20.5238 7.68064C20.5415 7.7848 20.5359 7.89116 20.5074 7.99329C20.4789 8.09541 20.4281 8.19117 20.3581 8.27478C20.2881 8.35839 20.2003 8.4281 20.1 8.4797Z" fill="#CBFF8C"/>
</svg>
