<svg width="26" height="42" viewBox="0 0 26 42" fill="none" xmlns="http://www.w3.org/2000/svg">
<path d="M21.5374 22.5246C23.9187 20.0342 25.2336 16.7169 25.2336 13.1951C25.2336 9.66866 23.9231 6.35595 21.5374 3.8656C19.1562 1.37526 15.9843 0 12.6168 0C9.24937 0 6.0774 1.37062 3.6962 3.8656C1.31499 6.36059 0 9.66866 0 13.1951C0 16.1593 0.928491 18.9749 2.63887 21.2748C2.96318 21.7115 3.31414 22.125 3.69175 22.5246C4.06937 22.9195 4.4692 23.2865 4.88235 23.6257C6.6416 25.0567 8.71627 25.9674 10.9287 26.274V31.2222H5.86416C5.66868 31.2222 5.50875 31.3895 5.50875 31.5939V34.3816C5.50875 34.586 5.66868 34.7533 5.86416 34.7533H10.9287V41.2579C10.9287 41.4623 11.0886 41.6296 11.2841 41.6296H13.9496C14.1451 41.6296 14.305 41.4623 14.305 41.2579V34.7533H19.3695C19.565 34.7533 19.7249 34.586 19.7249 34.3816V31.5939C19.7249 31.3895 19.565 31.2222 19.3695 31.2222H14.305V26.274C17.0372 25.893 19.5561 24.5968 21.5374 22.5246ZM12.6168 22.8591C10.1468 22.8591 7.8322 21.8555 6.08184 20.0296C4.33592 18.2036 3.37633 15.7784 3.37633 13.1951C3.37633 10.6118 4.33592 8.19118 6.08184 6.36059C7.82776 4.53 10.1468 3.53108 12.6168 3.53108C15.0869 3.53108 17.4014 4.53465 19.1518 6.36059C20.8977 8.18653 21.8573 10.6118 21.8573 13.1951C21.8573 15.7784 20.8977 18.199 19.1518 20.0296C17.4014 21.8555 15.0869 22.8591 12.6168 22.8591Z" fill="#CBFF8C"/>
</svg>
