<svg width="26" height="25" viewBox="0 0 26 25" fill="none" xmlns="http://www.w3.org/2000/svg">
<path d="M14.3478 0.00153794C15.2599 -0.00196222 16.172 0.00720512 17.0839 0.0290371L17.3264 0.0377868C17.6064 0.0477864 17.8826 0.060286 18.2164 0.0752854C19.5463 0.137783 20.4538 0.347776 21.25 0.656516C22.075 0.974005 22.77 1.40399 23.4649 2.09897C24.1004 2.72345 24.5922 3.47885 24.9061 4.31264C25.2149 5.10886 25.4249 6.01758 25.4874 7.34754C25.5024 7.68003 25.5149 7.95752 25.5249 8.23751L25.5324 8.48C25.5546 9.39146 25.5642 10.3032 25.5611 11.2149L25.5624 12.1474V13.7848C25.5655 14.697 25.5559 15.6091 25.5336 16.521L25.5261 16.7635C25.5161 17.0435 25.5036 17.3197 25.4886 17.6534C25.4261 18.9834 25.2136 19.8909 24.9061 20.6871C24.5932 21.5218 24.1013 22.2778 23.4649 22.902C22.8399 23.5374 22.0841 24.0292 21.25 24.3432C20.4538 24.6519 19.5463 24.8619 18.2164 24.9244C17.8826 24.9394 17.6064 24.9519 17.3264 24.9619L17.0839 24.9694C16.172 24.9917 15.2599 25.0012 14.3478 24.9982L13.4153 24.9994H11.7791C10.8669 25.0025 9.95481 24.9929 9.04293 24.9707L8.80044 24.9632C8.50371 24.9524 8.20705 24.9399 7.91047 24.9257C6.58052 24.8632 5.67305 24.6507 4.87557 24.3432C4.04146 24.0299 3.28593 23.538 2.6619 22.902C2.02573 22.2774 1.53347 21.5215 1.21945 20.6871C0.910709 19.8909 0.700716 18.9834 0.638219 17.6534C0.624298 17.3568 0.611798 17.0602 0.60072 16.7635L0.59447 16.521C0.571426 15.6091 0.561008 14.697 0.563221 13.7848V11.2149C0.559733 10.3032 0.5689 9.39146 0.59072 8.48L0.59947 8.23751C0.60947 7.95752 0.621969 7.68003 0.636969 7.34754C0.699467 6.01633 0.909459 5.11011 1.2182 4.31264C1.5324 3.47844 2.02563 2.72325 2.66315 2.10022C3.28675 1.46368 4.0418 0.970971 4.87557 0.656516C5.67305 0.347776 6.57927 0.137783 7.91047 0.0752854L8.80044 0.0377868L9.04293 0.0315371C9.95438 0.00850393 10.8661 -0.0019135 11.7778 0.000288075L14.3478 0.00153794ZM13.0628 6.25133C12.2347 6.23961 11.4125 6.3926 10.6441 6.70139C9.87565 7.01019 9.17624 7.46863 8.5865 8.05008C7.99677 8.63153 7.52848 9.32439 7.20885 10.0884C6.88922 10.8524 6.72463 11.6723 6.72463 12.5005C6.72463 13.3287 6.88922 14.1486 7.20885 14.9126C7.52848 15.6766 7.99677 16.3694 8.5865 16.9509C9.17624 17.5323 9.87565 17.9908 10.6441 18.2996C11.4125 18.6084 12.2347 18.7614 13.0628 18.7496C14.7203 18.7496 16.31 18.0912 17.4821 16.9191C18.6541 15.7471 19.3126 14.1574 19.3126 12.4999C19.3126 10.8423 18.6541 9.25266 17.4821 8.0806C16.31 6.90853 14.7203 6.25133 13.0628 6.25133ZM13.0628 8.75124C13.5609 8.74206 14.0559 8.83223 14.5187 9.01649C14.9816 9.20075 15.4031 9.47539 15.7587 9.82438C16.1142 10.1734 16.3967 10.5897 16.5895 11.0491C16.7823 11.5085 16.8817 12.0016 16.8818 12.4999C16.8818 12.9981 16.7826 13.4913 16.59 13.9507C16.3973 14.4101 16.115 14.8266 15.7596 15.1757C15.4041 15.5248 14.9827 15.7996 14.5199 15.984C14.0571 16.1684 13.5622 16.2587 13.064 16.2497C12.0695 16.2497 11.1157 15.8547 10.4125 15.1514C9.70925 14.4482 9.31417 13.4944 9.31417 12.4999C9.31417 11.5053 9.70925 10.5515 10.4125 9.8483C11.1157 9.14506 12.0695 8.74999 13.064 8.74999L13.0628 8.75124ZM19.6251 4.37639C19.2218 4.39253 18.8405 4.56407 18.5609 4.85509C18.2813 5.1461 18.1251 5.53402 18.1251 5.93759C18.1251 6.34115 18.2813 6.72907 18.5609 7.02008C18.8405 7.3111 19.2218 7.48264 19.6251 7.49878C20.0395 7.49878 20.4369 7.33417 20.7299 7.04115C21.0229 6.74814 21.1875 6.35072 21.1875 5.93634C21.1875 5.52195 21.0229 5.12454 20.7299 4.83152C20.4369 4.5385 20.0395 4.37389 19.6251 4.37389V4.37639Z" fill="#CBFF8C"/>
</svg>
