<svg width="27" height="27" viewBox="0 0 27 27" fill="none" xmlns="http://www.w3.org/2000/svg">
<path d="M14.8278 0.584628C15.7703 0.581011 16.7129 0.590484 17.6552 0.613044L17.9058 0.622086C18.1951 0.632419 18.4806 0.645336 18.8255 0.660836C20.1998 0.725419 21.1376 0.94242 21.9603 1.26146C22.8128 1.58954 23.531 2.03388 24.2492 2.75204C24.9058 3.39737 25.414 4.17798 25.7385 5.03959C26.0575 5.86238 26.2745 6.80142 26.3391 8.17575C26.3546 8.51934 26.3675 8.80609 26.3779 9.09542L26.3856 9.346C26.4086 10.2879 26.4185 11.23 26.4153 12.1722L26.4166 13.1358V14.8278C26.4198 15.7704 26.4099 16.713 26.3869 17.6553L26.3791 17.9059C26.3688 18.1952 26.3559 18.4807 26.3404 18.8255C26.2758 20.1999 26.0562 21.1376 25.7385 21.9604C25.4151 22.8229 24.9068 23.6042 24.2492 24.2493C23.6033 24.9058 22.8223 25.414 21.9603 25.7385C21.1376 26.0576 20.1998 26.2746 18.8255 26.3392C18.4806 26.3547 18.1951 26.3676 17.9058 26.3779L17.6552 26.3857C16.7129 26.4086 15.7703 26.4185 14.8278 26.4154L13.8642 26.4167H12.1734C11.2308 26.4199 10.2882 26.4099 9.34593 26.387L9.09535 26.3792C8.78872 26.3681 8.48216 26.3552 8.17568 26.3405C6.80135 26.2759 5.8636 26.0563 5.03951 25.7385C4.17756 25.4148 3.39682 24.9065 2.75197 24.2493C2.09457 23.6038 1.58589 22.8227 1.26139 21.9604C0.942348 21.1376 0.725348 20.1999 0.660765 18.8255C0.646379 18.5191 0.633463 18.2125 0.622015 17.9059L0.615557 17.6553C0.591743 16.713 0.580978 15.7704 0.583265 14.8278V12.1722C0.57966 11.23 0.589133 10.2879 0.611682 9.346L0.620723 9.09542C0.631057 8.80609 0.643973 8.51934 0.659473 8.17575C0.724057 6.80013 0.941056 5.86367 1.2601 5.03959C1.58479 4.17755 2.09447 3.39716 2.75327 2.75334C3.39767 2.09556 4.17792 1.58641 5.03951 1.26146C5.8636 0.94242 6.80006 0.725419 8.17568 0.660836L9.09535 0.622086L9.34593 0.615628C10.2878 0.591826 11.2299 0.581061 12.1721 0.583336L14.8278 0.584628ZM13.4999 7.04296C12.6442 7.03086 11.7946 7.18895 11.0005 7.50805C10.2064 7.82715 9.48368 8.30089 8.87427 8.90174C8.26486 9.50259 7.78095 10.2186 7.45065 11.0081C7.12036 11.7976 6.95027 12.6448 6.95027 13.5006C6.95027 14.3565 7.12036 15.2037 7.45065 15.9932C7.78095 16.7827 8.26486 17.4987 8.87427 18.0996C9.48368 18.7004 10.2064 19.1742 11.0005 19.4932C11.7946 19.8123 12.6442 19.9704 13.4999 19.9583C15.2128 19.9583 16.8555 19.2779 18.0667 18.0667C19.2778 16.8556 19.9583 15.2129 19.9583 13.5C19.9583 11.7871 19.2778 10.1444 18.0667 8.93327C16.8555 7.7221 15.2128 7.04296 13.4999 7.04296ZM13.4999 9.62629C14.0147 9.61681 14.5261 9.70999 15.0045 9.90039C15.4828 10.0908 15.9184 10.3746 16.2858 10.7352C16.6532 11.0959 16.945 11.5261 17.1443 12.0008C17.3436 12.4755 17.4462 12.9852 17.4463 13.5C17.4464 14.0148 17.3439 14.5245 17.1448 14.9993C16.9457 15.474 16.654 15.9044 16.2867 16.2651C15.9194 16.6259 15.4839 16.9098 15.0057 17.1004C14.5274 17.291 14.016 17.3843 13.5012 17.375C12.4735 17.375 11.4879 16.9667 10.7612 16.24C10.0345 15.5133 9.62622 14.5277 9.62622 13.5C9.62622 12.4723 10.0345 11.4867 10.7612 10.76C11.4879 10.0333 12.4735 9.625 13.5012 9.625L13.4999 9.62629ZM20.2812 5.10546C19.8645 5.12214 19.4704 5.29941 19.1815 5.60013C18.8925 5.90086 18.7312 6.30172 18.7312 6.71875C18.7312 7.13579 18.8925 7.53665 19.1815 7.83737C19.4704 8.1381 19.8645 8.31537 20.2812 8.33204C20.7094 8.33204 21.1201 8.16194 21.4229 7.85914C21.7257 7.55635 21.8958 7.14567 21.8958 6.71746C21.8958 6.28925 21.7257 5.87857 21.4229 5.57578C21.1201 5.27299 20.7094 5.10288 20.2812 5.10288V5.10546Z" fill="black"/>
</svg>
