<svg width="26" height="21" viewBox="0 0 26 21" fill="none" xmlns="http://www.w3.org/2000/svg">
<path d="M23.4165 0.833332H2.74984C1.329 0.833332 0.179421 1.92083 0.179421 3.25L0.166504 17.75C0.166504 19.0792 1.329 20.1667 2.74984 20.1667H23.4165C24.8373 20.1667 25.9998 19.0792 25.9998 17.75V3.25C25.9998 1.92083 24.8373 0.833332 23.4165 0.833332ZM22.8998 5.96875L13.7678 11.3096C13.3544 11.5512 12.8119 11.5512 12.3986 11.3096L3.2665 5.96875C3.13699 5.90073 3.02357 5.80884 2.93311 5.69863C2.84265 5.58842 2.77704 5.46219 2.74025 5.32757C2.70345 5.19296 2.69624 5.05275 2.71904 4.91545C2.74184 4.77815 2.79419 4.64661 2.87291 4.52878C2.95163 4.41095 3.05509 4.30929 3.17703 4.22995C3.29896 4.15061 3.43684 4.09524 3.58231 4.06719C3.72778 4.03914 3.87783 4.039 4.02336 4.06677C4.1689 4.09454 4.30689 4.14964 4.429 4.22875L13.0832 9.29167L21.7373 4.22875C21.8594 4.14964 21.9974 4.09454 22.143 4.06677C22.2885 4.039 22.4386 4.03914 22.584 4.06719C22.7295 4.09524 22.8674 4.15061 22.9893 4.22995C23.1113 4.30929 23.2147 4.41095 23.2934 4.52878C23.3722 4.64661 23.4245 4.77815 23.4473 4.91545C23.4701 5.05275 23.4629 5.19296 23.4261 5.32757C23.3893 5.46219 23.3237 5.58842 23.2332 5.69863C23.1428 5.80884 23.0294 5.90073 22.8998 5.96875Z" fill="#002500"/>
</svg>
