<svg width="38" height="40" viewBox="0 0 38 40" fill="none" xmlns="http://www.w3.org/2000/svg">
<path d="M36.5699 0.377319H24.5539C24.3965 0.377319 24.2678 0.5125 24.2678 0.67772V3.48146C24.2678 3.64668 24.3965 3.78186 24.5539 3.78186H32.2022L22.699 13.7602C20.3149 11.8326 17.4062 10.7912 14.3498 10.7912C10.683 10.7912 7.23077 12.2932 4.6416 15.0168C2.05243 17.7405 0.617188 21.3603 0.617188 25.2104C0.617188 29.0606 2.04767 32.6854 4.6416 35.404C7.23077 38.1277 10.683 39.6297 14.3498 39.6297C18.0166 39.6297 21.4688 38.1277 24.058 35.404C26.6519 32.6854 28.0824 29.0606 28.0824 25.2104C28.0824 22.0012 27.0906 18.9571 25.2596 16.4538L34.7579 6.48046V14.4961C34.7579 14.6614 34.8867 14.7965 35.044 14.7965H37.7143C37.8716 14.7965 38.0004 14.6614 38.0004 14.4961V1.87932C38.0004 1.05322 37.3567 0.377319 36.5699 0.377319ZM14.3498 35.8246C8.77568 35.8246 4.24107 31.0632 4.24107 25.2104C4.24107 19.3576 8.77568 14.5963 14.3498 14.5963C19.9239 14.5963 24.4585 19.3576 24.4585 25.2104C24.4585 31.0632 19.9239 35.8246 14.3498 35.8246Z" fill="#CBFF8C"/>
</svg>
