<svg width="167" height="196" viewBox="0 0 167 196" fill="none" xmlns="http://www.w3.org/2000/svg">
<path id="Vector" d="M166.712 116.575C166.439 103.742 161.067 103.501 151.269 72.9648C142.772 46.5229 145.946 44.0303 139.104 31.9617C136.427 27.2272 125.792 8.48124 107.234 2.15767C105.986 1.72445 104.66 1.35595 103.371 1.04678L103.204 1.02818C102.087 0.774869 100.937 0.573049 99.7644 0.414621L99.5714 0.393078C99.529 0.379191 99.4843 0.374198 99.4398 0.378391C99.0188 0.331388 98.5626 0.280468 98.1679 0.236403C82.9051 -1.15513 71.0614 6.844 67.2097 9.44459C55.1265 17.6007 52.0508 26.6153 41.5995 43.8615C18.0411 82.7319 7.87701 79.5035 2.59703 100.707C-3.87954 126.9 7.1876 149.487 8.97225 152.993C23.0328 180.588 49.5951 189.119 56.4333 191.351C63.8443 193.775 71.5651 195.07 79.3533 195.196C109.459 195.379 130.586 176.615 136.768 170.959C144.875 163.498 167.281 143.068 166.712 116.575ZM135.593 169.552C113.95 189.351 93.0699 193.411 79.3756 193.325C71.7504 193.198 64.1915 191.928 56.936 189.552C35.2314 182.538 19.6199 169.949 10.4922 152.106C7.50319 146.262 -1.75392 125.283 4.25595 101.121C6.8816 90.5687 10.7634 86.346 17.2028 79.3415C23.2761 72.6726 31.6302 63.6319 43.0398 44.8029C45.347 41.0014 47.3124 37.5565 49.045 34.5265C55.2693 23.641 59.0311 17.0723 68.1172 10.9418C71.8731 8.40398 83.2934 0.697358 97.9499 2.0304L99.3183 2.18316C97.8519 8.4733 95.6156 14.5502 92.6636 20.2665C89.1777 18.7197 86.071 16.3942 83.5655 13.4561L80.9459 15.9187C84.42 20.0347 88.9528 23.0486 94.0255 24.6153C95.4108 25.0271 96.8288 25.3144 98.2637 25.4742C102.284 25.8801 106.348 25.4109 110.194 24.0968L109.152 20.6194C104.931 22.0927 100.411 22.3593 96.0729 21.3909C99.0656 15.5043 101.327 9.25505 102.803 2.79254C116.11 5.79325 128.05 16.0985 137.571 32.8925C141.139 39.1958 141.811 42.6412 143.127 48.9135C144.776 57.2725 146.933 65.5124 149.583 73.5847C152.548 83.1298 156.217 92.4212 160.558 101.378C163.384 107.323 164.809 110.31 164.944 116.662C165.495 142.198 143.823 162.022 135.593 169.552Z" fill="white"/>
</svg>
