<svg width="27" height="27" viewBox="0 0 27 27" fill="none" xmlns="http://www.w3.org/2000/svg">
<path d="M20.4749 26.4167C15.2014 26.4098 10.1459 24.3119 6.41694 20.583C2.68801 16.8541 0.590087 11.7985 0.583252 6.525C0.583252 4.94917 1.20925 3.43788 2.32353 2.32361C3.4378 1.20933 4.94909 0.583331 6.52492 0.583331C6.85861 0.580789 7.19174 0.611074 7.5195 0.673748C7.83636 0.720636 8.14785 0.798509 8.4495 0.906248C8.66166 0.980686 8.8507 1.10921 8.99796 1.27912C9.14521 1.44902 9.24556 1.65442 9.28908 1.875L11.0587 9.625C11.1064 9.83536 11.1006 10.0543 11.042 10.2619C10.9833 10.4695 10.8736 10.6591 10.7228 10.8133C10.5549 10.9942 10.542 11.0071 8.95325 11.8337C10.2255 14.6249 12.4578 16.8663 15.2437 18.15C16.0833 16.5483 16.0962 16.5354 16.277 16.3675C16.4313 16.2167 16.6209 16.107 16.8284 16.0484C17.036 15.9897 17.255 15.984 17.4653 16.0317L25.2153 17.8012C25.4289 17.8508 25.6263 17.9539 25.7889 18.1007C25.9516 18.2476 26.0743 18.4335 26.1453 18.6408C26.2544 18.9474 26.3365 19.2629 26.3908 19.5837C26.4427 19.9084 26.4687 20.2366 26.4683 20.5654C26.4444 22.1345 25.8008 23.6305 24.678 24.7267C23.5551 25.823 22.0441 26.4305 20.4749 26.4167Z" fill="#002500"/>
</svg>
