<svg width="19" height="19" viewBox="0 0 19 19" fill="none" xmlns="http://www.w3.org/2000/svg">
<path d="M13.7752 17.4167C10.543 17.4125 7.44445 16.1267 5.15898 13.8412C2.87351 11.5557 1.58769 8.45715 1.5835 5.22501C1.5835 4.25918 1.96717 3.33291 2.65012 2.64996C3.33306 1.96702 4.25933 1.58334 5.22516 1.58334C5.42968 1.58178 5.63386 1.60035 5.83475 1.63876C6.02895 1.6675 6.21987 1.71523 6.40475 1.78126C6.53478 1.82688 6.65064 1.90566 6.7409 2.00979C6.83115 2.11393 6.89265 2.23982 6.91933 2.37501L8.00391 7.12501C8.03315 7.25394 8.02963 7.38814 7.99367 7.51537C7.95772 7.64259 7.89048 7.75878 7.79808 7.85334C7.69516 7.96418 7.68725 7.97209 6.7135 8.47876C7.49328 10.1894 8.86145 11.5632 10.5689 12.35C11.0835 11.3683 11.0914 11.3604 11.2022 11.2575C11.2968 11.1651 11.413 11.0979 11.5402 11.0619C11.6674 11.026 11.8016 11.0224 11.9306 11.0517L16.6806 12.1363C16.8114 12.1666 16.9324 12.2298 17.0321 12.3198C17.1319 12.4098 17.207 12.5238 17.2506 12.6508C17.3174 12.8388 17.3677 13.0321 17.401 13.2288C17.4329 13.4277 17.4487 13.6289 17.4485 13.8304C17.4339 14.7921 17.0394 15.709 16.3512 16.3809C15.663 17.0528 14.7369 17.4252 13.7752 17.4167Z" fill="#CBFF8C"/>
</svg>
