<svg width="71" height="70" viewBox="0 0 71 70" fill="none" xmlns="http://www.w3.org/2000/svg">
<g id="gridicons:play">
<path id="Vector" d="M35.5001 6.5C29.7314 6.5 24.0924 8.18616 19.2959 11.3452C14.4995 14.5043 10.7611 18.9945 8.55357 24.2479C6.34601 29.5012 5.76841 35.2819 6.89382 40.8588C8.01922 46.4358 10.7971 51.5586 14.8761 55.5793C18.9551 59.6001 24.1521 62.3383 29.8099 63.4476C35.4677 64.5569 41.3321 63.9876 46.6617 61.8115C51.9912 59.6355 56.5464 55.9506 59.7512 51.2226C62.9561 46.4947 64.6667 40.9362 64.6667 35.25C64.6667 31.4745 63.9123 27.736 62.4465 24.2479C60.9808 20.7597 58.8324 17.5904 56.124 14.9207C53.4156 12.251 50.2003 10.1333 46.6617 8.68846C43.123 7.24364 39.3303 6.5 35.5001 6.5ZM29.6667 48.1875V22.3125L47.1667 35.25L29.6667 48.1875Z" fill="#002500"/>
</g>
</svg>
