<svg width="23" height="25" viewBox="0 0 23 25" fill="none" xmlns="http://www.w3.org/2000/svg">
<path d="M17.8408 3.91667C16.8914 2.83281 16.3681 1.44088 16.3685 0H12.0769V17.2222C12.0438 18.1542 11.6503 19.037 10.9793 19.6846C10.3084 20.3323 9.41222 20.6943 8.47966 20.6944C6.50743 20.6944 4.86854 19.0833 4.86854 17.0833C4.86854 14.6944 7.1741 12.9028 9.5491 13.6389V9.25C4.75743 8.61111 0.562988 12.3333 0.562988 17.0833C0.562988 21.7083 4.39632 25 8.46577 25C12.8269 25 16.3685 21.4583 16.3685 17.0833V8.34722C18.1088 9.59701 20.1982 10.2676 22.3408 10.2639V5.97222C22.3408 5.97222 19.7297 6.09722 17.8408 3.91667Z" fill="#CBFF8C"/>
</svg>
