<svg width="21" height="25" viewBox="0 0 21 25" fill="none" xmlns="http://www.w3.org/2000/svg">
<path d="M16.4416 4.5175C15.5587 3.50951 15.0721 2.21502 15.0725 0.875H11.0812V16.8917C11.0504 17.7584 10.6845 18.5794 10.0605 19.1817C9.43648 19.784 8.60308 20.1207 7.73579 20.1208C5.90162 20.1208 4.37746 18.6225 4.37746 16.7625C4.37746 14.5408 6.52163 12.8746 8.73038 13.5592V9.4775C4.27412 8.88333 0.373291 12.345 0.373291 16.7625C0.373291 21.0637 3.93829 24.125 7.72288 24.125C11.7787 24.125 15.0725 20.8312 15.0725 16.7625V8.63792C16.6909 9.80022 18.6341 10.4238 20.6266 10.4204V6.42917C20.6266 6.42917 18.1983 6.54542 16.4416 4.5175Z" fill="black"/>
</svg>
