<svg width="62" height="61" viewBox="0 0 62 61" fill="none" xmlns="http://www.w3.org/2000/svg">
<g id="Group 1">
<path id="Vector" d="M37.8458 8.07983L37.8292 8.11569L38.4995 8.27015C39.4069 8.47702 40.2178 8.66734 40.9405 8.84938C39.931 8.54598 38.8994 8.2867 37.8458 8.07983ZM47.5961 11.6793C47.403 11.569 47.2044 11.4587 47.0058 11.3539C46.8073 11.249 46.5645 11.1166 46.3384 11.0063C46.126 11.0615 45.8474 11.1222 45.4778 11.1856C45.202 11.2325 44.8572 11.2821 44.4572 11.329C44.7689 11.4669 45.0778 11.6049 45.384 11.7621C45.6902 11.9193 45.9356 12.0379 46.2115 12.173C54.7289 16.6331 60.4329 24.7285 60.4329 33.9631C60.4329 47.9942 47.2403 59.4077 31.0247 59.4077C14.809 59.4077 1.60537 47.9859 1.60537 33.9548C1.60537 24.9823 7.00046 17.0799 15.1207 12.5509C15.6365 12.2613 16.1661 11.9855 16.7039 11.7235C17.319 11.4256 17.9451 11.147 18.5878 10.896C19.1146 10.4988 19.6911 10.0823 20.3558 9.65479C20.9075 9.29897 21.4867 8.93213 22.1238 8.55149C21.4398 8.73538 20.7668 8.93672 20.1048 9.15554C19.4125 9.38172 18.7257 9.63547 18.0692 9.90578C7.69002 14.1507 0.488281 23.3328 0.488281 33.952C0.488281 48.5927 14.1746 60.5 30.9998 60.5C47.825 60.5 61.5114 48.5927 61.5114 33.952C61.5252 24.632 55.9756 16.418 47.5961 11.6793Z" fill="#002500"/>
<path id="Vector_2" d="M39.4103 7.34615C41.5672 2.62957 41.2031 1.46008 40.5439 0.952567C39.7164 0.318174 38.1443 0.464359 32.3216 5.68569C28.4904 1.54834 24.389 -0.454131 22.4499 0.941534C20.7343 2.17722 21.3466 5.64983 21.8128 7.46475C20.5263 8.211 19.2814 9.02681 18.0836 9.90854C17.4989 10.3499 16.9445 10.7939 16.4453 11.2353C15.9797 11.645 15.5411 12.0845 15.1323 12.5509C14.1752 13.6542 13.6925 14.7023 14.0125 15.5381C14.84 17.6978 20.5247 17.364 26.0163 16.0456C26.1184 18.2853 27.3347 20.2271 28.9787 20.6325C29.9165 20.8615 31.0197 20.5857 32.0127 19.8768C33.0355 19.1247 33.7851 18.0594 34.1476 16.8427C35.9156 19.4327 38.1691 20.8173 39.7799 20.8173C40.1312 20.824 40.4788 20.7445 40.7922 20.5856C42.3257 19.7747 42.8608 16.4152 41.3603 12.6861C42.9873 12.6395 44.6083 12.4689 46.2093 12.1758C46.4755 12.1212 46.738 12.0503 46.9954 11.9634C47.2088 11.8958 47.4134 11.8032 47.605 11.6876C47.7337 11.6132 47.8421 11.5085 47.921 11.3825C47.9999 11.2565 48.0467 11.1132 48.0573 10.9649C48.1318 10.1402 47.5195 9.22726 39.4103 7.34615ZM46.339 11.0063C46.1266 11.0615 45.848 11.1222 45.4784 11.1856C45.2026 11.2325 44.8578 11.2821 44.4578 11.329C43.5228 11.4394 42.2513 11.5414 40.5025 11.6186L39.6751 11.6545L40.0281 12.4047C41.6831 15.9325 41.2776 19.0769 40.2709 19.6092C39.3248 20.1085 36.3597 18.768 34.3544 15.0775L33.4663 13.4501L33.3173 15.2981C33.2779 16.0177 33.0823 16.72 32.7441 17.3564C32.406 17.9927 31.9333 18.5478 31.359 18.9831C30.6474 19.4961 29.8558 19.7141 29.2434 19.5623C28.1098 19.2865 26.9789 17.604 27.1251 15.3781L27.1748 14.6196L26.4383 14.8072C19.5896 16.5586 15.4192 16.1283 15.0441 15.1464C14.8124 14.5424 15.8715 12.9536 18.6022 10.8932C19.129 10.496 19.7055 10.0796 20.3702 9.65203C20.9219 9.29621 21.5011 8.92937 22.1382 8.54873C22.3286 8.43289 22.5272 8.3198 22.7285 8.20396L23.1009 7.99157L22.985 7.57784C22.3258 5.23058 22.1051 2.54406 23.0926 1.83244C24.3669 0.91395 28.085 2.56337 31.8693 6.82484L32.2389 7.24133L32.6526 6.86621C38.9055 1.19805 39.824 1.79383 39.8709 1.82141C39.9178 1.84899 40.5274 2.40891 38.1249 7.48957L37.8491 8.07432L37.8326 8.11017L38.5028 8.26463C39.4103 8.4715 40.2212 8.66182 40.9439 8.84386C45.2081 9.90578 46.4603 10.5374 46.8382 10.827C46.6773 10.9013 46.5103 10.9612 46.339 11.0063Z" fill="#002500"/>
</g>
</svg>
